<?xml version="1.0" encoding="UTF-8" standalone="no"?>
<!-- Generator: Adobe Illustrator 17.0.1, SVG Export Plug-In . SVG Version: 6.00 Build 0)  -->

<svg
   xmlns:dc="http://purl.org/dc/elements/1.1/"
   xmlns:cc="http://creativecommons.org/ns#"
   xmlns:rdf="http://www.w3.org/1999/02/22-rdf-syntax-ns#"
   xmlns:svg="http://www.w3.org/2000/svg"
   xmlns="http://www.w3.org/2000/svg"
   xmlns:sodipodi="http://sodipodi.sourceforge.net/DTD/sodipodi-0.dtd"
   xmlns:inkscape="http://www.inkscape.org/namespaces/inkscape"
   version="1.1"
   id="Layer_1"
   x="0px"
   y="0px"
   width="185px"
   height="188px"
   viewBox="0 0 185 188"
   enable-background="new 0 0 185 188"
   xml:space="preserve"
   inkscape:version="0.91 r13725"
   sodipodi:docname="logos.svg"><metadata
   id="metadata235"><rdf:RDF><cc:Work
       rdf:about=""><dc:format>image/svg+xml</dc:format><dc:type
         rdf:resource="http://purl.org/dc/dcmitype/StillImage" /></cc:Work></rdf:RDF></metadata><defs
   id="defs233">
	
	
	
	
		<radialGradient
   gradientUnits="userSpaceOnUse"
   gradientTransform="matrix(0.498,0,0,0.498,172.2891,79.7388)"
   r="20.1137"
   cy="-60.055"
   cx="-310.583"
   id="SVGID_1_">
		<stop
   id="stop52"
   style="stop-color:#FFCF4F"
   offset="0" />
		<stop
   id="stop54"
   style="stop-color:#F4C236"
   offset="1" />
	</radialGradient>
	
	
		<radialGradient
   gradientUnits="userSpaceOnUse"
   gradientTransform="matrix(0.498,0,0,0.498,172.2891,79.7388)"
   r="27.6582"
   cy="-70.2695"
   cx="-322.6347"
   id="SVGID_2_">
		<stop
   id="stop59"
   style="stop-color:#08A960"
   offset="0" />
		<stop
   id="stop61"
   style="stop-color:#07914B"
   offset="1" />
	</radialGradient>
	
	
		<radialGradient
   gradientUnits="userSpaceOnUse"
   gradientTransform="matrix(0.498,0,0,0.498,172.2891,79.7388)"
   r="40.54"
   cy="-109.9511"
   cx="-313.1831"
   id="SVGID_3_">
		<stop
   id="stop66"
   style="stop-color:#567FC0"
   offset="0" />
		<stop
   id="stop68"
   style="stop-color:#557FC0"
   offset="1" />
	</radialGradient>
	
	
		<radialGradient
   gradientUnits="userSpaceOnUse"
   gradientTransform="matrix(0.498,0,0,0.498,172.2891,79.7388)"
   r="33.0584"
   cy="-119.9164"
   cx="-301.1191"
   id="SVGID_4_">
		<stop
   id="stop73"
   style="stop-color:#E14C40"
   offset="0" />
		<stop
   id="stop75"
   style="stop-color:#CD392D"
   offset="1" />
	</radialGradient>
	

		
		
		
		
		
		
		
		
		
		
	
		
		
		
		
		
		
		
	
	
	
	
	
		<radialGradient
   gradientUnits="userSpaceOnUse"
   gradientTransform="matrix(0.498,0,0,0.498,172.2891,79.7388)"
   r="20.1137"
   cy="66.4552"
   cx="-310.583"
   id="SVGID_5_">
		<stop
   id="stop128"
   style="stop-color:#CCCCCC"
   offset="0" />
		<stop
   id="stop130"
   style="stop-color:#C0C0C0"
   offset="1" />
	</radialGradient>
	
	
		<radialGradient
   gradientUnits="userSpaceOnUse"
   gradientTransform="matrix(0.498,0,0,0.498,172.2891,79.7388)"
   r="27.6582"
   cy="56.2407"
   cx="-322.6347"
   id="SVGID_6_">
		<stop
   id="stop135"
   style="stop-color:#A0A0A0"
   offset="0" />
		<stop
   id="stop137"
   style="stop-color:#7B7B7B"
   offset="1" />
	</radialGradient>
	
	
		<radialGradient
   gradientUnits="userSpaceOnUse"
   gradientTransform="matrix(0.498,0,0,0.498,172.2891,79.7388)"
   r="40.54"
   cy="16.559"
   cx="-313.1831"
   id="SVGID_7_">
		<stop
   id="stop142"
   style="stop-color:#848484"
   offset="0" />
		<stop
   id="stop144"
   style="stop-color:#838383"
   offset="1" />
	</radialGradient>
	
	
		<radialGradient
   gradientUnits="userSpaceOnUse"
   gradientTransform="matrix(0.498,0,0,0.498,172.2891,79.7388)"
   r="33.0584"
   cy="6.5938"
   cx="-301.1191"
   id="SVGID_8_">
		<stop
   id="stop149"
   style="stop-color:#626262"
   offset="0" />
		<stop
   id="stop151"
   style="stop-color:#474747"
   offset="1" />
	</radialGradient>
	

		
		
		
		
		
		
		
		
		
		
	
	
	
	
	
		<radialGradient
   gradientUnits="userSpaceOnUse"
   gradientTransform="matrix(0.498,0,0,0.498,172.2891,79.7388)"
   r="20.1137"
   cy="192.9653"
   cx="-310.265"
   id="SVGID_9_">
		<stop
   id="stop204"
   style="stop-color:#FFCF4F"
   offset="0" />
		<stop
   id="stop206"
   style="stop-color:#F4C236"
   offset="1" />
	</radialGradient>
	
	
		<radialGradient
   gradientUnits="userSpaceOnUse"
   gradientTransform="matrix(0.498,0,0,0.498,172.2891,79.7388)"
   r="27.6582"
   cy="182.7508"
   cx="-322.3167"
   id="SVGID_10_">
		<stop
   id="stop211"
   style="stop-color:#08A960"
   offset="0" />
		<stop
   id="stop213"
   style="stop-color:#07914B"
   offset="1" />
	</radialGradient>
	
	
		<radialGradient
   gradientUnits="userSpaceOnUse"
   gradientTransform="matrix(0.498,0,0,0.498,172.2891,79.7388)"
   r="40.54"
   cy="143.0691"
   cx="-312.8651"
   id="SVGID_11_">
		<stop
   id="stop218"
   style="stop-color:#567FC0"
   offset="0" />
		<stop
   id="stop220"
   style="stop-color:#557FC0"
   offset="1" />
	</radialGradient>
	
	
		<radialGradient
   gradientUnits="userSpaceOnUse"
   gradientTransform="matrix(0.498,0,0,0.498,172.2891,79.7388)"
   r="33.0584"
   cy="133.1039"
   cx="-300.8011"
   id="SVGID_12_">
		<stop
   id="stop225"
   style="stop-color:#E14C40"
   offset="0" />
		<stop
   id="stop227"
   style="stop-color:#CD392D"
   offset="1" />
	</radialGradient>
	

		
		
		
	</defs><sodipodi:namedview
   pagecolor="#ffffff"
   bordercolor="#666666"
   borderopacity="1"
   objecttolerance="10"
   gridtolerance="10"
   guidetolerance="10"
   inkscape:pageopacity="0"
   inkscape:pageshadow="2"
   inkscape:window-width="1366"
   inkscape:window-height="716"
   id="namedview231"
   showgrid="false"
   inkscape:zoom="1.2553191"
   inkscape:cx="92.5"
   inkscape:cy="94"
   inkscape:window-x="-8"
   inkscape:window-y="-8"
   inkscape:window-maximized="1"
   inkscape:current-layer="Layer_1" />
<g
   id="g43"
   transform="translate(27.881356,-1.5932203)">
		<path
   style="fill:#4e4e4e"
   inkscape:connector-curvature="0"
   id="path45"
   d="m 55.571,17.313 6.922,0 0,8.644 c -1.879,0.644 -3.945,0.965 -6.198,0.965 -2.472,0 -4.382,-0.716 -5.731,-2.15 -1.349,-1.433 -2.024,-3.477 -2.024,-6.132 0,-2.589 0.739,-4.603 2.216,-6.044 1.477,-1.44 3.547,-2.161 6.208,-2.161 1.009,0 1.962,0.095 2.858,0.285 0.896,0.19 1.676,0.432 2.342,0.724 l -1.371,3.4 c -1.156,-0.57 -2.424,-0.855 -3.807,-0.855 -1.265,0 -2.243,0.412 -2.934,1.234 -0.691,0.823 -1.037,1.999 -1.037,3.527 0,1.499 0.313,2.642 0.938,3.428 0.625,0.786 1.526,1.179 2.704,1.179 0.644,0 1.236,-0.062 1.777,-0.187 l 0,-2.512 -2.863,0 0,-3.345 z" />
		<path
   style="fill:#4e4e4e"
   inkscape:connector-curvature="0"
   id="path47"
   d="m 78.026,18.344 c 0,2.676 -0.737,4.739 -2.21,6.187 -1.473,1.448 -3.545,2.172 -6.214,2.172 l -5.188,0 0,-16.037 5.551,0 c 2.574,0 4.561,0.658 5.961,1.975 1.4,1.317 2.1,3.217 2.1,5.703 z m -4.497,0.154 c 0,-1.47 -0.291,-2.56 -0.872,-3.269 -0.582,-0.709 -1.464,-1.064 -2.649,-1.064 l -1.262,0 0,8.983 0.965,0 c 1.316,0 2.282,-0.382 2.896,-1.146 0.614,-0.764 0.922,-1.932 0.922,-3.504 z" />
		<path
   style="fill:#4e4e4e"
   inkscape:connector-curvature="0"
   id="path49"
   d="m 85.991,17.313 6.922,0 0,8.644 c -1.879,0.644 -3.945,0.965 -6.198,0.965 -2.472,0 -4.382,-0.716 -5.731,-2.15 -1.349,-1.433 -2.024,-3.477 -2.024,-6.132 0,-2.589 0.739,-4.603 2.216,-6.044 1.477,-1.44 3.547,-2.161 6.208,-2.161 1.009,0 1.962,0.095 2.858,0.285 0.896,0.19 1.676,0.432 2.342,0.724 l -1.371,3.4 c -1.156,-0.57 -2.424,-0.855 -3.807,-0.855 -1.265,0 -2.243,0.412 -2.934,1.234 -0.691,0.823 -1.037,1.999 -1.037,3.527 0,1.499 0.313,2.642 0.938,3.428 0.625,0.786 1.526,1.179 2.704,1.179 0.644,0 1.236,-0.062 1.777,-0.187 l 0,-2.512 -2.863,0 0,-3.345 z" />
	</g><path
   inkscape:connector-curvature="0"
   style="fill:url(#SVGID_1_)"
   id="path56"
   d="m 8.91,61 6.791,0 c 1.607,0 3.604,-1.128 4.432,-2.511 l 5.72,-9.519 c 0.677,-1.396 0.653,-3.426 -0.119,-4.713 L 22.356,38.665 8.91,61 Z" /><path
   inkscape:connector-curvature="0"
   style="fill:url(#SVGID_2_)"
   id="path63"
   d="M 16.209,33.514 1.108,58.763 C 0.524,60.011 1.131,61 2.629,61 L 8.91,61 22.356,38.665 16.21,28.492 c 0.829,1.378 0.829,3.638 -0.001,5.022" /><path
   inkscape:connector-curvature="0"
   style="fill:url(#SVGID_3_)"
   id="path70"
   d="M 2.629,1 C 1.015,1 0.375,2.133 1.205,3.511 l 24.529,40.745 c 0.772,1.288 0.795,3.317 0.119,4.713 L 31.816,39.044 8.914,1 2.629,1 Z" /><path
   inkscape:connector-curvature="0"
   style="fill:url(#SVGID_4_)"
   id="path77"
   d="m 8.914,1 22.903,38.045 3.321,-5.53 c 0.83,-1.385 0.83,-3.645 0,-5.023 L 20.133,3.511 C 19.305,2.133 17.308,1 15.701,1 L 8.914,1 Z" />
<g
   id="g119"
   transform="translate(30.271186,0)">
		<path
   style="fill:#4e4e4e"
   inkscape:connector-curvature="0"
   id="path121"
   d="m 55.571,80.313 6.922,0 0,8.644 c -1.879,0.644 -3.945,0.966 -6.198,0.966 -2.472,0 -4.382,-0.717 -5.731,-2.15 -1.349,-1.433 -2.024,-3.477 -2.024,-6.132 0,-2.589 0.739,-4.603 2.216,-6.044 1.477,-1.44 3.547,-2.161 6.208,-2.161 1.009,0 1.962,0.096 2.858,0.285 0.896,0.19 1.676,0.432 2.342,0.725 l -1.371,3.4 c -1.156,-0.57 -2.424,-0.855 -3.807,-0.855 -1.265,0 -2.243,0.411 -2.934,1.233 -0.691,0.823 -1.037,1.999 -1.037,3.527 0,1.499 0.313,2.642 0.938,3.428 0.625,0.786 1.526,1.179 2.704,1.179 0.644,0 1.236,-0.062 1.777,-0.187 l 0,-2.512 -2.863,0 0,-3.346 z" />
		<path
   style="fill:#4e4e4e"
   inkscape:connector-curvature="0"
   id="path123"
   d="m 78.026,81.344 c 0,2.677 -0.737,4.739 -2.21,6.187 -1.474,1.448 -3.545,2.172 -6.214,2.172 l -5.188,0 0,-16.038 5.551,0 c 2.574,0 4.561,0.658 5.961,1.975 1.4,1.317 2.1,3.217 2.1,5.704 z m -4.497,0.153 c 0,-1.47 -0.291,-2.56 -0.872,-3.269 -0.581,-0.709 -1.464,-1.063 -2.649,-1.063 l -1.262,0 0,8.983 0.965,0 c 1.316,0 2.282,-0.382 2.896,-1.146 0.615,-0.764 0.922,-1.933 0.922,-3.505 z" />
		<path
   style="fill:#4e4e4e"
   inkscape:connector-curvature="0"
   id="path125"
   d="m 85.991,80.313 6.922,0 0,8.644 c -1.879,0.644 -3.945,0.966 -6.198,0.966 -2.472,0 -4.382,-0.717 -5.731,-2.15 -1.349,-1.433 -2.024,-3.477 -2.024,-6.132 0,-2.589 0.739,-4.603 2.216,-6.044 1.477,-1.44 3.547,-2.161 6.208,-2.161 1.009,0 1.962,0.096 2.858,0.285 0.896,0.19 1.676,0.432 2.342,0.725 l -1.371,3.4 c -1.156,-0.57 -2.424,-0.855 -3.807,-0.855 -1.265,0 -2.243,0.411 -2.934,1.233 -0.691,0.823 -1.037,1.999 -1.037,3.527 0,1.499 0.313,2.642 0.938,3.428 0.625,0.786 1.526,1.179 2.704,1.179 0.644,0 1.236,-0.062 1.777,-0.187 l 0,-2.512 -2.863,0 0,-3.346 z" />
	</g><path
   inkscape:connector-curvature="0"
   style="fill:url(#SVGID_5_)"
   id="path132"
   d="m 8.91,124 6.791,0 c 1.607,0 3.604,-1.128 4.432,-2.511 l 5.72,-9.519 c 0.677,-1.396 0.653,-3.426 -0.119,-4.713 L 22.356,101.665 8.91,124 Z" /><path
   inkscape:connector-curvature="0"
   style="fill:url(#SVGID_6_)"
   id="path139"
   d="M 16.209,96.514 1.108,121.763 C 0.524,123.011 1.131,124 2.629,124 L 8.91,124 22.356,101.665 16.21,91.492 c 0.829,1.378 0.829,3.638 -0.001,5.022" /><path
   inkscape:connector-curvature="0"
   style="fill:url(#SVGID_7_)"
   id="path146"
   d="m 2.629,64 c -1.613,0 -2.254,1.133 -1.424,2.511 l 24.529,40.745 c 0.772,1.288 0.795,3.317 0.119,4.713 L 31.816,102.044 8.914,64 2.629,64 Z" /><path
   inkscape:connector-curvature="0"
   style="fill:url(#SVGID_8_)"
   id="path153"
   d="m 8.914,64 22.903,38.045 3.321,-5.53 c 0.83,-1.385 0.83,-3.645 0,-5.023 L 20.134,66.512 C 19.305,65.133 17.308,64 15.701,64 l -6.787,0 z" />
<g
   id="g3748"
   transform="translate(32.661017,0.79661017)"><path
     style="fill:#e6e6e5"
     inkscape:connector-curvature="0"
     id="path197"
     d="m 55.729,143.313 6.922,0 0,8.644 c -1.879,0.644 -3.945,0.966 -6.198,0.966 -2.472,0 -4.382,-0.717 -5.731,-2.15 -1.349,-1.433 -2.024,-3.478 -2.024,-6.132 0,-2.589 0.739,-4.604 2.216,-6.044 1.477,-1.44 3.547,-2.161 6.208,-2.161 1.009,0 1.962,0.096 2.858,0.285 0.896,0.19 1.676,0.432 2.342,0.725 l -1.371,3.4 c -1.156,-0.57 -2.424,-0.855 -3.807,-0.855 -1.265,0 -2.243,0.411 -2.934,1.233 -0.691,0.823 -1.037,1.998 -1.037,3.526 0,1.5 0.313,2.643 0.938,3.429 0.625,0.786 1.526,1.179 2.704,1.179 0.644,0 1.236,-0.062 1.777,-0.187 l 0,-2.512 -2.863,0 0,-3.346 z" /><path
     style="fill:#e6e6e5"
     inkscape:connector-curvature="0"
     id="path199"
     d="m 78.185,144.345 c 0,2.677 -0.737,4.738 -2.21,6.187 -1.473,1.449 -3.545,2.172 -6.214,2.172 l -5.188,0 0,-16.037 5.551,0 c 2.574,0 4.561,0.658 5.961,1.975 1.4,1.317 2.1,3.216 2.1,5.703 z m -4.497,0.153 c 0,-1.47 -0.291,-2.56 -0.872,-3.269 -0.581,-0.709 -1.464,-1.064 -2.649,-1.064 l -1.262,0 0,8.984 0.965,0 c 1.316,0 2.282,-0.383 2.896,-1.146 0.614,-0.765 0.922,-1.933 0.922,-3.505 z" /><path
     style="fill:#e6e6e5"
     inkscape:connector-curvature="0"
     id="path201"
     d="m 86.15,143.313 6.922,0 0,8.644 c -1.879,0.644 -3.945,0.966 -6.198,0.966 -2.472,0 -4.382,-0.717 -5.731,-2.15 -1.349,-1.433 -2.024,-3.478 -2.024,-6.132 0,-2.589 0.739,-4.604 2.216,-6.044 1.477,-1.44 3.547,-2.161 6.208,-2.161 1.009,0 1.962,0.096 2.858,0.285 0.896,0.19 1.676,0.432 2.342,0.725 l -1.371,3.4 c -1.156,-0.57 -2.424,-0.855 -3.807,-0.855 -1.265,0 -2.243,0.411 -2.934,1.233 -0.691,0.823 -1.037,1.998 -1.037,3.526 0,1.5 0.313,2.643 0.938,3.429 0.625,0.786 1.526,1.179 2.704,1.179 0.644,0 1.236,-0.062 1.777,-0.187 l 0,-2.512 -2.863,0 0,-3.346 z" /></g><path
   inkscape:connector-curvature="0"
   style="fill:url(#SVGID_9_)"
   id="path208"
   d="m 9.068,187 6.791,0 c 1.607,0 3.604,-1.128 4.432,-2.511 l 5.72,-9.519 c 0.677,-1.396 0.653,-3.426 -0.119,-4.713 L 22.514,164.665 9.068,187 Z" /><path
   inkscape:connector-curvature="0"
   style="fill:url(#SVGID_10_)"
   id="path215"
   d="M 16.368,159.514 1.266,184.763 C 0.683,186.011 1.289,187 2.787,187 l 6.281,0 13.446,-22.335 -6.146,-10.173 c 0.829,1.378 0.829,3.638 0,5.022" /><path
   inkscape:connector-curvature="0"
   style="fill:url(#SVGID_11_)"
   id="path222"
   d="m 2.787,127 c -1.613,0 -2.254,1.133 -1.424,2.511 l 24.529,40.745 c 0.772,1.288 0.795,3.317 0.119,4.713 L 31.974,165.044 9.072,127 2.787,127 Z" /><path
   inkscape:connector-curvature="0"
   style="fill:url(#SVGID_12_)"
   id="path229"
   d="m 9.072,127 22.903,38.045 3.321,-5.53 c 0.83,-1.385 0.83,-3.645 0,-5.023 L 20.292,129.511 C 19.463,128.133 17.467,127 15.86,127 l -6.788,0 z" />
<text
   xml:space="preserve"
   style="font-style:normal;font-variant:normal;font-weight:bold;font-stretch:normal;font-size:22.5px;line-height:125%;font-family:sans-serif;-inkscape-font-specification:'sans-serif Bold';letter-spacing:0px;word-spacing:0px;fill:#333333;fill-opacity:1;stroke:none;stroke-width:1px;stroke-linecap:butt;stroke-linejoin:miter;stroke-opacity:1;"
   x="47.796612"
   y="52.576271"
   id="text3626"
   sodipodi:linespacing="125%"><tspan
     sodipodi:role="line"
     id="tspan3628"
     x="47.796612"
     y="52.576271">Bangangté</tspan></text>
<text
   sodipodi:linespacing="125%"
   id="text3649"
   y="113.11864"
   x="47"
   style="font-style:normal;font-variant:normal;font-weight:bold;font-stretch:normal;font-size:22.5px;line-height:125%;font-family:sans-serif;-inkscape-font-specification:'sans-serif Bold';letter-spacing:0px;word-spacing:0px;fill:#666666;fill-opacity:1;stroke:none;stroke-width:1px;stroke-linecap:butt;stroke-linejoin:miter;stroke-opacity:1;"
   xml:space="preserve"><tspan
     y="113.11864"
     x="47"
     id="tspan3651"
     sodipodi:role="line">Bangangté</tspan></text>
<text
   sodipodi:linespacing="125%"
   id="text3744"
   y="177.64407"
   x="47"
   style="font-style:normal;font-variant:normal;font-weight:bold;font-stretch:normal;font-size:22.5px;line-height:125%;font-family:sans-serif;-inkscape-font-specification:'sans-serif Bold';letter-spacing:0px;word-spacing:0px;fill:#cccccc;fill-opacity:1;stroke:none;stroke-width:1px;stroke-linecap:butt;stroke-linejoin:miter;stroke-opacity:1;"
   xml:space="preserve"><tspan
     y="177.64407"
     x="47"
     id="tspan3746"
     sodipodi:role="line">Bangangté</tspan></text>
</svg>